<?xml version="1.0" encoding="utf-8"?>
<!-- Generator: Adobe Illustrator 23.0.0, SVG Export Plug-In . SVG Version: 6.00 Build 0)  -->
<svg version="1.1" id="Layer_1" xmlns="http://www.w3.org/2000/svg" xmlns:xlink="http://www.w3.org/1999/xlink" x="0px" y="0px"
	 width="15px" height="15px" viewBox="0 0 15 15" style="enable-background:new 0 0 15 15;" xml:space="preserve">
<title>画板 2</title>
<path d="M2.4,12.5c-0.2,0-0.4-0.2-0.4-0.4c0-0.1,0-0.2,0.1-0.3l9.2-10.1c0.2-0.2,0.4-0.2,0.6,0s0.2,0.4,0,0.7L2.7,12.4
	C2.6,12.5,2.5,12.5,2.4,12.5z"/>
<path d="M11.6,12.5c-0.1,0-0.2,0-0.3-0.1L2.1,2.3C2,2.1,2,1.9,2.1,1.7c0.2-0.2,0.4-0.2,0.6,0l9.2,10.1c0.2,0.2,0.2,0.4,0,0.7
	C11.8,12.4,11.7,12.5,11.6,12.5L11.6,12.5z"/>
</svg>
