<?xml version="1.0" encoding="utf-8"?>
<!-- Generator: Adobe Illustrator 21.0.0, SVG Export Plug-In . SVG Version: 6.00 Build 0)  -->
<svg version="1.1" id="Layer_1" xmlns="http://www.w3.org/2000/svg" xmlns:xlink="http://www.w3.org/1999/xlink" x="0px" y="0px"
	 viewBox="0 0 15 15" style="enable-background:new 0 0 15 15;" xml:space="preserve">
<style type="text/css">
	.st0{fill:none;stroke:#000000;stroke-width:1.0526;stroke-miterlimit:10;}
</style>
<title>画板 2</title>
<path d="M28.1,12.5c-0.2,0-0.4-0.2-0.4-0.4c0-0.1,0-0.2,0.1-0.3L37,1.7c0.2-0.2,0.4-0.2,0.6,0c0.2,0.2,0.2,0.4,0,0.7l-9.2,10
	C28.4,12.5,28.2,12.5,28.1,12.5z"/>
<path d="M37.3,12.5c-0.1,0-0.2,0-0.3-0.1L27.9,2.3c-0.1-0.2-0.1-0.4,0-0.6c0.2-0.2,0.4-0.2,0.6,0l9.2,10.1c0.2,0.2,0.2,0.4,0,0.7
	C37.5,12.4,37.5,12.5,37.3,12.5L37.3,12.5z"/>
<g>
	<line class="st0" x1="12.5" y1="2.5" x2="2.5" y2="12.5"/>
	<line class="st0" x1="12.5" y1="12.5" x2="2.5" y2="2.5"/>
</g>
</svg>
