<?xml version="1.0" encoding="utf-8"?>
<!-- Generator: Adobe Illustrator 23.0.0, SVG Export Plug-In . SVG Version: 6.00 Build 0)  -->
<svg version="1.1" id="Layer_1" xmlns="http://www.w3.org/2000/svg" xmlns:xlink="http://www.w3.org/1999/xlink" x="0px" y="0px"
	 width="15px" height="15px" viewBox="0 0 15 15" style="enable-background:new 0 0 15 15;" xml:space="preserve">
<title>画板 2</title>
<path d="M2.9,12.5c-0.2,0-0.4-0.2-0.4-0.4c0-0.1,0-0.2,0.1-0.3l9.2-9.2c0.2-0.2,0.4-0.2,0.6,0c0.2,0.2,0.2,0.4,0,0.6l-9.2,9.2
	C3.1,12.5,3,12.5,2.9,12.5z"/>
<path d="M12.1,12.5c-0.1,0-0.2,0-0.3-0.1L2.6,3.2C2.5,3,2.5,2.8,2.6,2.6c0.2-0.2,0.4-0.2,0.6,0l9.2,9.2c0.2,0.2,0.2,0.4,0,0.6
	C12.3,12.4,12.2,12.5,12.1,12.5L12.1,12.5z"/>
</svg>
