<svg xmlns="http://www.w3.org/2000/svg" viewBox="0 0 23 23"><defs><style>.cls-1{fill:#000;}</style></defs><title>资源 3</title><g id="图层_2" data-name="图层 2"><g id="Layer_1" data-name="Layer 1"><path class="cls-1" d="M16.35,6.65a.5.5,0,0,0-.71,0L11.5,10.79,7.35,6.65a.5.5,0,0,0-.71.71l4.15,4.15L6.65,15.65a.5.5,0,1,0,.71.71l4.15-4.15,4.15,4.15a.5.5,0,0,0,.71-.71L12.21,11.5l4.15-4.15A.5.5,0,0,0,16.35,6.65Z"/><path class="cls-1" d="M11.5,0A11.5,11.5,0,1,0,23,11.5,11.5,11.5,0,0,0,11.5,0Zm0,22A10.5,10.5,0,1,1,22,11.5,10.51,10.51,0,0,1,11.5,22Z"/></g></g></svg>