<?xml version="1.0" encoding="utf-8"?>
<!-- Generator: Adobe Illustrator 21.0.0, SVG Export Plug-In . SVG Version: 6.00 Build 0)  -->
<svg version="1.1" id="图层_1" xmlns="http://www.w3.org/2000/svg" xmlns:xlink="http://www.w3.org/1999/xlink" x="0px" y="0px"
	 width="20px" height="20px" viewBox="0 0 20 20" style="enable-background:new 0 0 20 20;" xml:space="preserve">
<path style="fill:none;stroke:#000000;stroke-linecap:round;stroke-miterlimit:10;" d="M15.2,16.5H4.8c-1,0-1.8-0.7-2-1.6l-1.3-7
	C1.4,6.8,2.1,5.7,3.2,5.5c0.1,0,0.3,0,0.4,0h12.9c1.1,0,2,0.9,2,2c0,0.1,0,0.3,0,0.4l-1.3,7C16.9,15.8,16.1,16.5,15.2,16.5z"/>
<path style="fill:none;stroke:#000000;stroke-linecap:round;stroke-miterlimit:10;" d="M3.5,5V3.5c0-1.1,0.9-2,2-2h1.3
	c0.4,0,0.8,0.2,1.1,0.5l0.5,0.5h6.1c1.5,0,2,1.4,2,2.5"/>
<line style="fill:none;stroke:#000000;stroke-linecap:round;stroke-miterlimit:10;" x1="14.5" y1="9.7" x2="13.5" y2="13.7"/>
</svg>
