<svg xmlns="http://www.w3.org/2000/svg" viewBox="0 0 23 23"><defs><style>.cls-1{fill:#000;}</style></defs><title>资源 1</title><g id="图层_2" data-name="图层 2"><g id="Layer_1" data-name="Layer 1"><path class="cls-1" d="M11.5,0A11.5,11.5,0,1,0,23,11.5,11.5,11.5,0,0,0,11.5,0Zm0,22A10.5,10.5,0,1,1,22,11.5,10.51,10.51,0,0,1,11.5,22Z"/><rect class="cls-1" x="10.5" y="5" width="2" height="2"/><polygon class="cls-1" points="12.5 10 12.5 9 10.5 9 9.5 9 9.5 10 10.5 10 10.5 17 9.5 17 9.5 18 10.5 18 12.5 18 13.5 18 13.5 17 12.5 17 12.5 10"/></g></g></svg>