<svg id="Layer_1" data-name="Layer 1" xmlns="http://www.w3.org/2000/svg" viewBox="0 0 15 15"><defs><style>.cls-1{fill:#000;}</style></defs><title>画板 2 副本 4</title><path class="cls-1" d="M11.5,2.85a1.24,1.24,0,0,1,.76.26A1.92,1.92,0,0,1,13,4.47a2.1,2.1,0,0,1-.48,1.58l-5,5.67-5-5.67A2.1,2.1,0,0,1,2,4.47,1.92,1.92,0,0,1,2.74,3.1a1.23,1.23,0,0,1,.76-.26,1.61,1.61,0,0,1,1.18.58L5.74,4.62a2.32,2.32,0,0,0,3.53,0l1.06-1.19a1.61,1.61,0,0,1,1.18-.58m0-.85a2.45,2.45,0,0,0-1.82.86L8.63,4.06a1.47,1.47,0,0,1-2.26,0L5.32,2.86A2.45,2.45,0,0,0,3.5,2a2.09,2.09,0,0,0-1.27.43,2.94,2.94,0,0,0-.38,4.18L7.5,13l5.65-6.39a2.94,2.94,0,0,0-.38-4.18A2.09,2.09,0,0,0,11.5,2Z"/></svg>