<?xml version="1.0" encoding="utf-8"?>
<!-- Generator: Adobe Illustrator 21.0.0, SVG Export Plug-In . SVG Version: 6.00 Build 0)  -->
<svg version="1.1" id="Layer_1" xmlns="http://www.w3.org/2000/svg" xmlns:xlink="http://www.w3.org/1999/xlink" x="0px" y="0px"
	 width="34px" height="34px" viewBox="0 0 34 34" style="enable-background:new 0 0 34 34;" xml:space="preserve">
<circle style="fill:none;stroke:#000000;stroke-miterlimit:10;" cx="16.9" cy="16.7" r="16"/>
<g style="opacity:0.5;">
	<g>
		<path style="fill:#000000;" d="M18.7,16.7c-0.5,0.4-0.8,0.8-0.9,1.4c-0.1,0.2-0.1,0.7-0.2,1.2s-0.5,0.9-1,0.9l0,0
			c-0.5,0-1-0.4-1-0.9c0-0.2,0-0.4,0-0.6c0-0.7,0.1-1.3,0.4-1.8s0.8-1.1,1.6-1.7s1.2-1,1.4-1.1c0.7-0.7,0.9-1.5,0.6-2.3
			c-0.4-1.1-1.5-1.6-2.7-1.6c-1.2,0.1-2.1,0.6-2.7,1.7c-0.3,0.4-0.8,0.6-1.2,0.4l0,0c-0.5-0.2-0.7-0.9-0.4-1.4
			c1-1.6,2.5-2.4,4.5-2.4c1.5,0,2.6,0.5,3.5,1.3c0.8,0.8,1.2,1.7,1.2,2.8c0,1.3-0.6,2.3-1.8,3.3L18.7,16.7z"/>
	</g>
	<circle style="fill:#000000;" cx="16.6" cy="23.6" r="1.1"/>
</g>
</svg>
