<svg xmlns="http://www.w3.org/2000/svg" viewBox="0 0 23 23"><defs><style>.cls-1{fill:#000;}</style></defs><title>资源 5</title><g id="图层_2" data-name="图层 2"><g id="Layer_1" data-name="Layer 1"><path class="cls-1" d="M11.5,0A11.5,11.5,0,1,0,23,11.5,11.5,11.5,0,0,0,11.5,0Zm0,22.08A10.58,10.58,0,1,1,22.08,11.5,10.59,10.59,0,0,1,11.5,22.08Z"/><path class="cls-1" d="M13.94,5.93a3.23,3.23,0,0,0-1.16-.79A4.54,4.54,0,0,0,11,4.85a3.7,3.7,0,0,0-1.54.32,3.61,3.61,0,0,0-1.22.9,4.32,4.32,0,0,0-.82,1.39,5.73,5.73,0,0,0-.34,1.79h2A4.88,4.88,0,0,1,9.3,8.12a3.09,3.09,0,0,1,.4-.87,1.84,1.84,0,0,1,.59-.56,1.46,1.46,0,0,1,.75-.2,1.85,1.85,0,0,1,.75.14,1.5,1.5,0,0,1,.54.4,1.63,1.63,0,0,1,.32.58,2.38,2.38,0,0,1,.1.71,1.74,1.74,0,0,1-.22.88,3.79,3.79,0,0,1-.54.73,9.6,9.6,0,0,1-.71.67,6.62,6.62,0,0,0-.71.71,3.82,3.82,0,0,0-.54.84,2.4,2.4,0,0,0-.22,1.05v1.14h2.32V13.28a1.92,1.92,0,0,1,.2-.87,4.1,4.1,0,0,1,.49-.76q.3-.36.64-.72a8,8,0,0,0,.64-.75,4.1,4.1,0,0,0,.49-.84,2.51,2.51,0,0,0,.2-1A4.13,4.13,0,0,0,14.59,7,3,3,0,0,0,13.94,5.93Z"/><rect class="cls-1" x="9.81" y="15.65" width="2.32" height="2.14"/></g></g></svg>