<?xml version="1.0" encoding="utf-8"?>
<!-- Generator: Adobe Illustrator 23.0.0, SVG Export Plug-In . SVG Version: 6.00 Build 0)  -->
<svg version="1.1" id="图层_1" xmlns="http://www.w3.org/2000/svg" xmlns:xlink="http://www.w3.org/1999/xlink" x="0px" y="0px"
	 width="15px" height="15px" viewBox="0 0 15 15" style="enable-background:new 0 0 15 15;" xml:space="preserve">
<title>资源 8</title>
<g>
	<g id="Layer_1">
		<path d="M6,1.9C8.2,1.9,10,3.7,10,6C10,7,9.6,8.1,8.8,8.8C7.3,10.5,4.7,10.6,3.1,9S1.4,4.9,2.9,3.3C3,3.2,3,3.2,3.1,3.1
			C3.9,2.3,4.9,1.9,6,1.9 M6,1C3.2,1,1,3.2,1,6c0,2.7,2.2,5,5,5s5-2.2,5-5c0-1.3-0.5-2.6-1.5-3.5C8.6,1.5,7.3,1,6,1z"/>
		<line style="fill:none;stroke:#000000;stroke-linecap:round;stroke-miterlimit:10;" x1="9.2" y1="9.2" x2="13" y2="13"/>
	</g>
</g>
</svg>
