<svg xmlns="http://www.w3.org/2000/svg" viewBox="0 0 22.91 20.04"><defs><style>.cls-1{fill:#000;}</style></defs><title>资源 2</title><g id="图层_2" data-name="图层 2"><g id="Layer_1" data-name="Layer 1"><path class="cls-1" d="M22.77,18.47,12.36.52a1,1,0,0,0-1.81,0L.14,18.47A1,1,0,0,0,1,20H21.86A1,1,0,0,0,22.77,18.47Zm-.91.57H1L1,19,11.41,1a0,0,0,0,1,0,0l0,0L21.9,19Z"/><path class="cls-1" d="M10.45,7.42v5a1,1,0,0,0,2,0v-5a1,1,0,0,0-2,0Z"/><rect class="cls-1" x="10.45" y="14.42" width="2" height="2"/></g></g></svg>