<?xml version="1.0" encoding="utf-8"?>
<!-- Generator: Adobe Illustrator 21.0.0, SVG Export Plug-In . SVG Version: 6.00 Build 0)  -->
<svg version="1.1" id="图层_1" xmlns="http://www.w3.org/2000/svg" xmlns:xlink="http://www.w3.org/1999/xlink" x="0px" y="0px"
	 width="20px" height="20px" viewBox="0 0 20 20" style="enable-background:new 0 0 20 20;" xml:space="preserve">
<circle style="fill:none;stroke:#000000;stroke-miterlimit:10;" cx="9.5" cy="9.5" r="8"/>
<path style="fill:none;stroke:#000000;stroke-miterlimit:9;" d="M9.5,15"/>
<path style="fill:none;stroke:#000000;stroke-miterlimit:9;" d="M9.5,4"/>
<g>
	<path style="fill:none;stroke:#000000;stroke-linecap:round;stroke-linejoin:round;" d="M13.5,13.5"/>
	<path style="fill:none;stroke:#000000;stroke-linecap:round;stroke-linejoin:round;" d="M5.5,5.5"/>
	<path style="fill:none;stroke:#000000;stroke-linecap:round;stroke-linejoin:round;" d="M5.5,13.5"/>
	<path style="fill:none;stroke:#000000;stroke-linecap:round;stroke-linejoin:round;" d="M13.5,5.5"/>
</g>
<g>
	<g>
		<path style="fill:#000000;" d="M10.6,9.7c-0.3,0.2-0.4,0.4-0.5,0.8c-0.1,0.1-0.1,0.4-0.1,0.7s-0.3,0.5-0.5,0.5l0,0
			c-0.3,0-0.5-0.2-0.5-0.5c0-0.1,0-0.2,0-0.3c0-0.4,0.1-0.7,0.2-1s0.4-0.6,0.9-0.9c0.4-0.3,0.6-0.6,0.7-0.6c0.4-0.4,0.5-0.8,0.3-1.3
			C10.9,6.3,10.3,6,9.7,6C9,6.1,8.6,6.4,8.2,7C8.1,7.2,7.8,7.3,7.6,7.2l0,0C7.3,7.1,7.2,6.7,7.4,6.4c0.5-0.9,1.3-1.3,2.4-1.3
			c0.8,0,1.4,0.3,1.9,0.7c0.4,0.4,0.6,0.9,0.6,1.6c0,0.7-0.3,1.3-1,1.8L10.6,9.7z"/>
	</g>
	<ellipse style="fill:#000000;" cx="9.5" cy="13.5" rx="0.6" ry="0.6"/>
</g>
</svg>
