<?xml version="1.0" encoding="utf-8"?>
<!-- Generator: Adobe Illustrator 21.0.0, SVG Export Plug-In . SVG Version: 6.00 Build 0)  -->
<svg version="1.1" id="图层_1" xmlns="http://www.w3.org/2000/svg" xmlns:xlink="http://www.w3.org/1999/xlink" x="0px" y="0px"
	 width="20px" height="20px" viewBox="0 0 20 20" style="enable-background:new 0 0 20 20;" xml:space="preserve">
<path style="fill:#000000;" d="M13,5c1.1,0,2,0.9,2,2v6c0,1.1-0.9,2-2,2H7c-1.1,0-2-0.9-2-2V7c0-1.1,0.9-2,2-2H13 M13,4H7
	C5.3,4,4,5.3,4,7v6c0,1.7,1.3,3,3,3l0,0h6c1.7,0,3-1.3,3-3V7C16,5.3,14.7,4,13,4z"/>
</svg>
