<?xml version="1.0" encoding="utf-8"?>
<!-- Generator: Adobe Illustrator 21.0.0, SVG Export Plug-In . SVG Version: 6.00 Build 0)  -->
<svg version="1.1" id="Layer_1" xmlns="http://www.w3.org/2000/svg" xmlns:xlink="http://www.w3.org/1999/xlink" x="0px" y="0px"
	 width="20px" height="20px" viewBox="0 0 20 20" style="enable-background:new 0 0 20 20;" xml:space="preserve">
<title>icons2</title>
<path style="fill:none;stroke:#000000;stroke-miterlimit:10;" d="M4.5,5.5h10l0,0v9c0,1.1-0.9,2-2,2h-6c-1.1,0-2-0.9-2-2V5.5
	L4.5,5.5z"/>
<path style="fill:none;stroke:#000000;stroke-miterlimit:10;" d="M8.5,2.5h2c0.6,0,1,0.4,1,1v2l0,0h-4l0,0v-2
	C7.5,2.9,7.9,2.5,8.5,2.5z"/>
<line style="fill:none;stroke:#000000;stroke-linecap:round;stroke-miterlimit:10;" x1="9.5" y1="8" x2="9.5" y2="14"/>
<line style="fill:none;stroke:#000000;stroke-linecap:round;stroke-miterlimit:10;" x1="11.5" y1="9" x2="11.5" y2="13"/>
<line style="fill:none;stroke:#000000;stroke-linecap:round;stroke-miterlimit:10;" x1="7.5" y1="9" x2="7.5" y2="13"/>
<line style="fill:none;stroke:#000000;stroke-linecap:round;stroke-miterlimit:10;" x1="2" y1="5.5" x2="17" y2="5.5"/>
</svg>
