<?xml version="1.0" encoding="utf-8"?>
<!-- Generator: Adobe Illustrator 21.0.0, SVG Export Plug-In . SVG Version: 6.00 Build 0)  -->
<svg version="1.1" id="图层_1" xmlns="http://www.w3.org/2000/svg" xmlns:xlink="http://www.w3.org/1999/xlink" x="0px" y="0px"
	 width="20px" height="20px" viewBox="0 0 20 20" style="enable-background:new 0 0 20 20;" xml:space="preserve">
<path style="fill:#000000;" d="M11,7c1.1,0,2,0.9,2,2v4c0,1.1-0.9,2-2,2H7c-1.1,0-2-0.9-2-2V9c0-1.1,0.9-2,2-2H11 M11,6H7
	C5.3,6,4,7.3,4,9v4c0,1.7,1.3,3,3,3h4c1.7,0,3-1.3,3-3V9C14,7.3,12.7,6,11,6z"/>
<path style="fill:none;stroke:#000000;stroke-linecap:round;stroke-miterlimit:10;" d="M7,4.5h5.5c1.7,0,3,1.3,3,3V13"/>
</svg>
