<?xml version="1.0" encoding="utf-8"?>
<svg version="1.1" xmlns="http://www.w3.org/2000/svg" xmlns:xlink="http://www.w3.org/1999/xlink" x="0px" y="0px"
	 width="63px" height="58px" viewBox="0 0 63 58">
<style type="text/css">
	.st0{fill-rule:evenodd;clip-rule:evenodd;fill:#FFFFFF;fill-opacity:0.6;}
	.st1{fill-rule:evenodd;clip-rule:evenodd;fill:#FFFFFF;}
</style>
	<g transform="translate(24.000000, 13.000000)">
		<path class="st0" d="M0,19.1C2.5,19.7,5.1,20,7.8,20C21.3,20,33.1,12.2,39,0.9C36.5,0.3,33.8,0,31.2,0C17.6,0,5.9,7.7,0,19.1"
			/>
	</g>
	<path class="st1" d="M59.3,0c-14.5,0-27,8.9-32.4,21.5c0,0.1-0.1,0.2-0.1,0.3c-0.2,0.5-0.4,1-0.6,1.5
		c0,0,0,0.1-0.1,0.1c-0.1,0.2-0.2,0.4-0.2,0.7c-0.1,0.2-0.1,0.4-0.2,0.6c-0.1,0.2-0.1,0.4-0.2,0.7c-0.1,0.3-0.2,0.6-0.3,1
		c0,0.1,0,0.1-0.1,0.2c0,0,0,0,0,0c-0.8,2.9-1.2,5.9-1.2,9.1c0,8.5,3,16.3,8,22.5c3.3-4.5,5.2-10.1,5.2-16.1
		c0-6-1.9-11.6-5.2-16.1C46.3,23.4,58.1,13.4,63,0.2C61.8,0.1,60.6,0,59.3,0z"/>
	<path class="st1" d="M13.4,22.3c-0.7,0-1.2-0.5-1.2-1.2s0.6-1.2,1.2-1.2s1.2,0.5,1.2,1.2S14.1,22.3,13.4,22.3
		 M23.2,34c0-4.8,1-9.4,2.8-13.6c-0.2-0.2-0.4-0.3-0.7-0.5c-0.2-0.1-0.4-0.2-0.5-0.3c-0.2-0.1-0.4-0.3-0.6-0.4
		c-0.2-0.1-0.4-0.2-0.6-0.4c-0.2-0.1-0.4-0.2-0.6-0.3c-0.2-0.1-0.4-0.2-0.6-0.3c0,0,0,0-0.1,0c0,0-0.1,0-0.1,0c0,0,0,0,0,0
		c-1.9-0.7-3.9-1.2-6.1-1.2c-3.5,0-6.7,1.1-9.4,2.9c0,0-0.1,0.1-0.1,0.1c0,0,0,0,0,0C5,21.2,3,21.9,0.7,21.9c-0.3,0-0.5,0-0.7,0
		c1.2,0.3,2.4,0.6,3.5,1c1.4,0.5,2.7,1,4,1.7c0,0,0,0,0,0c0.9,0.5,1.8,1,2.7,1.5c0,0,0.1,0.1,0.1,0.1c0.3,0.2,0.6,0.3,0.8,0.5
		c0,0,0.1,0.1,0.1,0.1c0.8,0.5,1.6,1.1,2.4,1.7c0.1,0.1,0.2,0.1,0.3,0.2c0.2,0.2,0.4,0.4,0.7,0.5c0.1,0.1,0.2,0.1,0.2,0.2
		c0.4,0.3,0.8,0.7,1.2,1.1c0.1,0.1,0.2,0.2,0.3,0.2c0.2,0.2,0.4,0.4,0.6,0.5c0.1,0.1,0.2,0.2,0.3,0.3c0.2,0.2,0.3,0.4,0.5,0.5
		c0.1,0.1,0.2,0.3,0.4,0.4c0.3,0.3,0.5,0.6,0.8,0.9c0.1,0.1,0.2,0.3,0.4,0.4c2,2.4,3.6,5.1,4.9,8C23.6,39.4,23.2,36.7,23.2,34"/>
</svg>
